<svg version="1" xmlns="http://www.w3.org/2000/svg" width="341.333" height="341.333" viewBox="0 0 256.000000 256.000000"><path d="M56 18.2c-1.9 1.3-4.5 3.9-5.7 5.7L48 27.4l.2 101.5c.3 111.6-.2 103.5 6.6 108.2l3.6 2.4h62.5c60.4 0 62.8-.1 66.9-2 2.3-1.1 4.2-2.3 4.2-2.7 0-.5.4-.8 1-.8 1.3 0 7.1-5.7 9.8-9.6 5.4-7.9 5.3-4.7 5-105.2l-.3-92.8-2.4-3.6c-4.6-6.7.2-6.3-76.2-6.6l-69.5-.3-3.4 2.3zM192 72v40H64V32h128v40zm-96 80v8h16v16H96v16H80v-16H64v-16h16v-16h16v8zm79.5 16v7.5h-15l-.3-6.4c-.4-9.2-.4-9.2 8-8.9l7.3.3v7.5zm-16 16v7.5h-15l-.3-6.4c-.4-9.2-.4-9.2 8-8.9l7.3.3v7.5zm-48.9 26.4c1.2 1.7 1.1 2.2-.3 3.8-2.4 2.7-9.7 2.4-12.5-.4l-2.1-2.1 2.3-1.9c3.2-2.6 10.6-2.2 12.6.6zm65.3 5.6l8.1 8h-3.9c-3.4 0-4.6-.8-11.5-7.5-4.2-4.2-7.6-7.8-7.6-8 0-.3 1.5-.5 3.4-.5 2.9 0 4.6 1.2 11.5 8zm15.5-.4c4.2 4.2 7.6 7.8 7.6 8 0 .2-1.5.4-3.3.4-2.9 0-4.6-1.2-11-7.5-4.3-4.1-7.7-7.7-7.7-8 0-.3 1.5-.5 3.4-.5 2.8 0 4.5 1.2 11 7.6zm-64.8 2.5c1.4 1.6 1.4 1.9-.5 3.8-2.7 2.7-10.1 2.9-12.4.3-1.5-1.7-1.5-2-.1-4.1 1.3-1.8 2.4-2.2 6.5-2 3.2.2 5.5.9 6.5 2z"/></svg>