<?xml version="1.0" standalone="no"?>
<!DOCTYPE svg PUBLIC "-//W3C//DTD SVG 20010904//EN"
 "http://www.w3.org/TR/2001/REC-SVG-20010904/DTD/svg10.dtd">
<svg version="1.0" xmlns="http://www.w3.org/2000/svg"
 width="400.000000pt" height="400.000000pt" viewBox="0 0 400.000000 400.000000"
 preserveAspectRatio="xMidYMid meet">
<metadata>
Created by potrace 1.11, written by Peter Selinger 2001-2013
</metadata>
<g transform="translate(0.000000,400.000000) scale(0.100000,-0.100000)"
fill="#000000" stroke="none">
<path d="M1825 3916 c-172 -64 -254 -242 -176 -381 16 -28 26 -56 23 -61 -4
-5 -37 -33 -74 -62 -115 -91 -222 -227 -269 -344 -51 -125 -60 -176 -69 -398
-6 -118 -13 -252 -16 -297 -5 -66 -2 -101 15 -178 25 -108 25 -109 14 -112
-17 -6 -142 109 -191 174 -275 371 -248 846 64 1143 38 36 82 75 99 87 53 38
18 37 -51 -2 -233 -127 -383 -326 -456 -603 -32 -123 -32 -378 0 -530 16 -74
22 -138 22 -224 0 -161 38 -302 132 -493 86 -174 164 -239 320 -265 89 -15
187 -1 220 32 26 26 23 89 -7 184 -29 89 -46 222 -27 210 12 -7 40 -64 88
-179 156 -370 322 -551 551 -597 96 -19 237 -10 298 20 69 34 77 66 40 147
-34 73 -41 96 -65 212 -48 225 -8 441 89 481 40 16 68 0 93 -56 37 -84 35
-174 -7 -413 -14 -77 -14 -102 -5 -143 20 -82 69 -122 150 -122 115 0 262 64
337 148 114 127 244 491 299 836 27 167 27 541 0 658 -23 99 -46 113 -46 28 0
-115 -46 -268 -112 -373 -97 -154 -287 -263 -458 -263 -62 0 -79 -9 -134 -66
-52 -54 -86 -57 -179 -18 -63 27 -86 28 -193 8 -25 -5 -38 0 -68 27 -21 18
-48 53 -61 79 -30 59 -36 64 -118 90 -226 73 -366 285 -367 556 0 102 13 176
51 284 30 85 91 202 134 256 21 26 25 27 49 16 52 -23 87 -15 146 33 30 25 94
65 141 90 104 54 119 76 100 158 -18 83 -70 167 -125 205 -42 28 -56 32 -110
31 -33 -1 -75 -6 -91 -13z m420 -1865 c33 -6 81 -11 106 -11 53 0 62 -6 49
-30 -14 -26 -72 -50 -122 -50 -75 1 -158 52 -158 99 0 10 8 12 33 8 17 -3 59
-11 92 -16z"/>
<path d="M2922 3758 c-50 -24 -103 -85 -131 -152 -38 -87 -25 -121 64 -172 28
-15 83 -61 122 -101 68 -68 75 -73 116 -73 64 0 132 53 188 145 67 112 -9 290
-151 354 -60 28 -150 27 -208 -1z"/>
<path d="M1987 2976 c-65 -24 -129 -82 -165 -151 -35 -66 -38 -181 -6 -235 45
-77 137 -103 205 -57 49 33 179 205 179 236 0 44 -27 128 -50 162 -23 31 -74
59 -107 59 -10 -1 -35 -7 -56 -14z"/>
<path d="M2634 2886 c-34 -15 -78 -74 -108 -142 l-18 -41 61 -125 c74 -155
101 -182 176 -176 121 10 187 129 155 280 -31 146 -166 249 -266 204z"/>
<path d="M2143 2344 c-56 -28 -38 -82 32 -98 16 -4 46 -25 67 -47 l38 -39 38
25 c20 13 53 28 72 31 56 11 70 22 70 54 0 40 -31 58 -127 75 -102 19 -151 18
-190 -1z"/>
<path d="M1170 1282 c-83 -41 -105 -149 -45 -212 75 -78 190 -58 229 40 27 69
2 136 -65 171 -47 24 -74 24 -119 1z m142 -53 c40 -48 38 -97 -6 -143 -29 -31
-40 -36 -79 -36 -86 0 -137 87 -96 166 33 63 133 71 181 13z"/>
<path d="M1185 1210 c-39 -43 -10 -120 45 -120 29 0 50 16 50 39 0 12 -3 11
-18 -2 -35 -32 -72 -14 -72 35 0 38 31 54 65 32 20 -13 25 -14 25 -2 0 40 -64
52 -95 18z"/>
<path d="M3085 1077 c-55 -26 -70 -52 -70 -122 0 -57 3 -67 30 -95 69 -72 183
-53 221 37 8 18 14 44 14 59 0 37 -27 90 -56 109 -34 22 -103 28 -139 12z
m134 -46 c26 -24 31 -37 31 -74 0 -58 -35 -103 -87 -113 -107 -20 -173 108
-96 188 22 23 35 28 74 28 38 0 53 -6 78 -29z"/>
<path d="M3106 1013 c-10 -10 -7 -111 4 -118 6 -4 10 5 10 19 0 33 13 33 39
-1 12 -14 24 -23 28 -20 3 4 0 13 -6 21 -10 11 -9 21 3 43 8 16 11 35 7 41 -8
14 -74 25 -85 15z m62 -30 c5 -17 -26 -29 -40 -15 -6 6 -7 15 -3 22 9 14 37 9
43 -7z"/>
<path d="M772 734 c-12 -8 -22 -25 -22 -37 0 -18 176 -557 205 -630 4 -9 18
-20 30 -23 52 -13 61 -1 136 192 40 101 77 183 82 181 6 -2 37 -82 69 -177 33
-96 64 -180 70 -187 15 -18 63 -16 79 3 22 27 249 610 249 640 0 26 -30 54
-58 54 -29 0 -42 -23 -98 -165 -45 -116 -74 -168 -74 -135 0 19 -77 260 -90
280 -7 11 -32 16 -94 19 -81 3 -86 2 -111 -23 -18 -18 -25 -33 -20 -44 19 -47
16 -82 -11 -156 -16 -42 -33 -75 -39 -73 -5 2 -29 64 -52 138 -24 74 -51 140
-60 147 -25 18 -163 16 -191 -4z"/>
<path d="M1748 733 c-8 -10 -18 -23 -21 -29 -7 -12 196 -629 214 -650 15 -18
63 -18 79 1 6 8 42 92 80 187 37 95 72 174 77 175 6 2 36 -76 69 -173 32 -97
64 -183 72 -190 14 -15 40 -18 66 -8 9 3 60 120 124 282 160 406 147 367 128
397 -18 27 -52 33 -78 13 -9 -7 -40 -75 -69 -150 -30 -76 -58 -137 -63 -135
-4 2 -28 63 -52 137 -24 74 -51 140 -61 147 -10 8 -48 13 -95 13 -65 0 -81 -3
-98 -20 -23 -23 -24 -38 -10 -89 9 -31 7 -46 -19 -111 -30 -77 -46 -94 -54
-63 -47 166 -80 254 -99 268 -33 23 -170 21 -190 -2z"/>
<path d="M2737 732 c-15 -17 -17 -55 -17 -340 0 -377 -9 -352 121 -352 108 0
108 0 111 185 l3 150 101 3 c87 2 104 6 120 23 17 19 17 23 3 47 -14 26 -18
27 -119 32 l-105 5 0 75 0 75 145 3 c156 3 180 11 180 58 0 49 -25 54 -286 54
-221 0 -242 -2 -257 -18z"/>
</g>
</svg>
